<svg xmlns="http://www.w3.org/2000/svg" viewBox="0 0 24 24"><linearGradient id="telegramGradient" gradientTransform="matrix(0 23.8219 -23.8219 0 12 0)" gradientUnits="userSpaceOnUse" x1="0" x2="1" y1="0" y2="0"><stop offset="0" stop-color="#2aabee"/><stop offset="1" stop-color="#229ed9"/></linearGradient><circle cx="12" cy="12" fill="url(#telegramGradient)" r="12"/><path d="m5.432 11.873c3.498-1.524 5.831-2.529 6.998-3.014 3.333-1.386 4.025-1.627 4.476-1.635.1-.002.322.023.465.14.122.098.155.231.171.325.016.093.036.306.02.472-.18 1.897-.962 6.502-1.359 8.627-.169.9-.5 1.201-.82 1.231-.697.064-1.226-.461-1.901-.903-1.057-.693-1.653-1.124-2.678-1.799-1.185-.781-.417-1.21.258-1.911.177-.184 3.247-2.977 3.307-3.23.007-.032.014-.15-.056-.212-.07-.063-.174-.041-.249-.024-.106.024-1.793 1.139-5.061 3.345-.479.329-.913.489-1.302.481-.428-.009-1.252-.242-1.865-.441-.752-.245-1.349-.374-1.297-.789.027-.216.325-.437.893-.663z" fill="#fff"/></svg>